<svg width="271" height="217" viewBox="0 0 271 217" fill="none" xmlns="http://www.w3.org/2000/svg">
<path d="M185.254 31.1414L154.345 39.4237L146.063 8.51403L176.972 0.231822L185.254 31.1414Z" fill="white"/>
<path d="M67.9368 50.7612L36.7598 68.7612L18.7598 37.5843L49.9368 19.5843L67.9368 50.7612Z" fill="white"/>
<path d="M130.48 200L130.48 136L66.48 136L66.48 200L130.48 200Z" fill="white"/>
<path d="M268.281 200.447L259.062 196.087L258.329 186.629L251.3 194.152L241.597 191.733L245.483 200.947L241.365 209.195L251.066 207.492L257.376 215.249L258.825 205.304L268.281 200.447Z" fill="#00FF00"/>
<path d="M8.2288 124.38C12.7735 130.635 18.631 134.127 21.3119 132.179C23.9927 130.231 22.4817 123.582 17.937 117.326C13.3923 111.071 7.53475 107.579 4.85391 109.527C2.17306 111.474 3.68405 118.124 8.2288 124.38Z" fill="#FFFF00"/>
<path d="M86.0498 123.641C88.9108 117.49 87.042 113.939 80.4434 112.989C73.8447 112.04 71.9625 108.738 74.7969 103.084C77.1603 96.9582 75.2787 93.185 69.1519 91.7643C62.5532 90.8146 60.6711 87.5128 63.5054 81.8589" stroke="#FF0000" stroke-width="4" stroke-linecap="round"/>
</svg>
