<svg width="189" height="223" viewBox="0 0 189 223" fill="none" xmlns="http://www.w3.org/2000/svg">
<path d="M0.937901 214.141L31.8475 222.424L40.1297 191.514L9.22011 183.232L0.937901 214.141Z" fill="white"/>
<path d="M139.24 189.761L170.417 207.761L188.417 176.584L157.24 158.584L139.24 189.761Z" fill="white"/>
<path d="M90 64.48H26V0.48H90V64.48Z" fill="white"/>
<path d="M178 92.629C174.667 87.629 172.333 87.7957 171 93.129C169 99.129 166.333 99.7957 163 95.129C160.333 89.7957 158 90.129 156 96.129C154.667 101.462 152.333 101.796 149 97.129" stroke="#00FF00" stroke-width="4" stroke-linecap="round"/>
<path d="M97.0477 142.961L88.6487 137.534L88.9487 127.488L80.3892 134.101L71.2018 131.737L74.8223 140.505L69.395 148.904L79.3706 148.207L85.9141 155.769L88.2789 146.582L97.0477 142.961Z" fill="#FFFF00"/>
</svg>
